<svg id="visual" viewBox="0 0 900 600" width="900" height="600" xmlns="http://www.w3.org/2000/svg" xmlns:xlink="http://www.w3.org/1999/xlink" version="1.1"><rect x="0" y="0" width="900" height="600" fill="#001220"></rect><path d="M0 373L21.5 375.7C43 378.3 86 383.7 128.8 383.2C171.7 382.7 214.3 376.3 257.2 375.2C300 374 343 378 385.8 375.3C428.7 372.7 471.3 363.3 514.2 360.3C557 357.3 600 360.7 642.8 363.5C685.7 366.3 728.3 368.7 771.2 367.3C814 366 857 361 878.5 358.5L900 356L900 601L878.5 601C857 601 814 601 771.2 601C728.3 601 685.7 601 642.8 601C600 601 557 601 514.2 601C471.3 601 428.7 601 385.8 601C343 601 300 601 257.2 601C214.3 601 171.7 601 128.8 601C86 601 43 601 21.5 601L0 601Z" fill="#10152c"></path><path d="M0 469L21.5 467.8C43 466.7 86 464.3 128.8 453.2C171.7 442 214.3 422 257.2 419.8C300 417.7 343 433.3 385.8 443.8C428.7 454.3 471.3 459.7 514.2 458.5C557 457.3 600 449.7 642.8 450C685.7 450.3 728.3 458.7 771.2 461.3C814 464 857 461 878.5 459.5L900 458L900 601L878.5 601C857 601 814 601 771.2 601C728.3 601 685.7 601 642.8 601C600 601 557 601 514.2 601C471.3 601 428.7 601 385.8 601C343 601 300 601 257.2 601C214.3 601 171.7 601 128.8 601C86 601 43 601 21.5 601L0 601Z" fill="#141a38"></path><path d="M0 505L21.5 500.8C43 496.7 86 488.3 128.8 484.7C171.7 481 214.3 482 257.2 481.5C300 481 343 479 385.8 472C428.7 465 471.3 453 514.2 446.8C557 440.7 600 440.3 642.8 440.7C685.7 441 728.3 442 771.2 450.8C814 459.7 857 476.3 878.5 484.7L900 493L900 601L878.5 601C857 601 814 601 771.2 601C728.3 601 685.7 601 642.8 601C600 601 557 601 514.2 601C471.3 601 428.7 601 385.8 601C343 601 300 601 257.2 601C214.3 601 171.7 601 128.8 601C86 601 43 601 21.5 601L0 601Z" fill="#1a1f45"></path><path d="M0 531L21.5 530.7C43 530.3 86 529.7 128.8 524.2C171.7 518.7 214.3 508.3 257.2 509C300 509.7 343 521.3 385.8 528.7C428.7 536 471.3 539 514.2 533.3C557 527.7 600 513.3 642.8 511.3C685.7 509.3 728.3 519.7 771.2 517.5C814 515.3 857 500.7 878.5 493.3L900 486L900 601L878.5 601C857 601 814 601 771.2 601C728.3 601 685.7 601 642.8 601C600 601 557 601 514.2 601C471.3 601 428.7 601 385.8 601C343 601 300 601 257.2 601C214.3 601 171.7 601 128.8 601C86 601 43 601 21.5 601L0 601Z" fill="#212452"></path><path d="M0 525L21.5 526.5C43 528 86 531 128.8 537.2C171.7 543.3 214.3 552.7 257.2 559.3C300 566 343 570 385.8 570.7C428.7 571.3 471.3 568.7 514.2 566.2C557 563.7 600 561.3 642.8 556.8C685.7 552.3 728.3 545.7 771.2 542C814 538.3 857 537.7 878.5 537.3L900 537L900 601L878.5 601C857 601 814 601 771.2 601C728.3 601 685.7 601 642.8 601C600 601 557 601 514.2 601C471.3 601 428.7 601 385.8 601C343 601 300 601 257.2 601C214.3 601 171.7 601 128.8 601C86 601 43 601 21.5 601L0 601Z" fill="#29285f"></path></svg>